<?xml version="1.0" encoding="UTF-8" standalone="no"?>
<svg
   height="48"
   viewBox="0 -960 960 960"
   width="48"
   version="1.1"
   id="svg1"
   sodipodi:docname="battery-saver.svg"
   xml:space="preserve"
   inkscape:version="1.4 (e7c3feb100, 2024-10-09)"
   xmlns:inkscape="http://www.inkscape.org/namespaces/inkscape"
   xmlns:sodipodi="http://sodipodi.sourceforge.net/DTD/sodipodi-0.dtd"
   xmlns="http://www.w3.org/2000/svg"
   xmlns:svg="http://www.w3.org/2000/svg"><defs
     id="defs1" /><sodipodi:namedview
     id="namedview1"
     pagecolor="#505050"
     bordercolor="#ffffff"
     borderopacity="1"
     inkscape:showpageshadow="0"
     inkscape:pageopacity="0"
     inkscape:pagecheckerboard="1"
     inkscape:deskcolor="#d1d1d1"
     inkscape:zoom="11.313709"
     inkscape:cx="26.118757"
     inkscape:cy="16.30765"
     inkscape:window-width="1908"
     inkscape:window-height="978"
     inkscape:window-x="6"
     inkscape:window-y="6"
     inkscape:window-maximized="1"
     inkscape:current-layer="svg1" /><path
     id="path1"
     d="m 329.88281,-880 v 80 h -80 c -11.33333,0 -20.84897,3.81771 -28.51562,11.48438 -7.66667,7.66663 -11.48438,17.18229 -11.48438,28.51562 v 640 c 0,11.33333 3.81771,20.848958 11.48438,28.515625 C 229.03385,-83.817708 238.54948,-80 249.88281,-80 h 30.58594 c 2.29787,-5.448046 5.52524,-10.486181 9.6875,-14.648438 l 27.07031,-27.070312 c -11.54522,-17.25517 -20.90778,-35.90837 -27.89063,-55.85937 -9.05149,-25.86151 -13.55468,-53.24885 -13.55468,-81.83594 0,-68.0466 24.46368,-127.90118 71.875,-175.3125 47.41132,-47.41132 107.2659,-71.875 175.3125,-71.875 h 86.91406 V -760 c 0,-11.33333 -3.81771,-20.84899 -11.48438,-28.51562 C 590.73178,-796.18229 581.21614,-800 569.88281,-800 h -80 v -80 z m 193.08594,393.39844 c -63.41974,0 -117.1567,22.00044 -161.17188,66.01562 -44.01518,44.01518 -66.01562,97.75214 -66.01562,161.17188 0,26.50376 4.13945,51.57029 12.42187,75.23437 8.28242,23.66408 20.01125,45.20483 35.15625,64.60938 l -39.0625,39.062498 c -5.2061,5.206101 -7.8125,11.797964 -7.8125,19.84375 0,8.045786 2.6064,14.676715 7.8125,19.882812 5.2061,5.206097 11.83704,7.8125 19.88282,7.8125 8.04579,0 14.67671,-2.606403 19.88281,-7.8125 l 39.76562,-39.023438 c 19.40455,15.145011 40.79132,26.834761 64.21875,35.117188 23.42744,8.282427 48.4181,12.421875 74.92188,12.421875 63.41972,0 117.11762,-22.000442 161.13281,-66.015625 44.01518,-44.01519 66.01563,-97.71309 66.01563,-161.13281 v -227.1875 z m 28.39844,171.09375 c 8.04578,0 14.67671,2.6064 19.88281,7.8125 5.67938,5.67937 8.51562,12.42522 8.51562,20.23437 0,7.80914 -2.83624,14.555 -8.51562,20.23438 l -111.48438,111.44531 c -5.67938,5.67938 -12.54015,8.63055 -20.58593,8.86719 -8.04579,0.23664 -14.67672,-2.71454 -19.88282,-8.86719 -5.2061,-5.67939 -7.8125,-12.42524 -7.8125,-20.23437 0,-7.80915 2.6064,-14.32516 7.8125,-19.53126 l 112.1875,-112.14843 c 5.2061,-5.2061 11.83703,-7.8125 19.88282,-7.8125 z" /></svg>
